# xmcd
#
# Track frame offsets:
#	150
#	12473
#	27299
#	43752
#	57575
#	74622
#	87767
#	103981
#	115603
#	131738
#	149842
#	165013
#	179941
#	193558
#	207652
#	223185
#	239909
#	252637
#	264387
#	279433
#
# Disc length: 3929 seconds
#
# Revision: 1
# Processed by: cddbd v1.5.2PL0 Copyright (c) Steve Scherf et al.
# Submitted via: dBpowerAMP V4.0
#
DISCID=4a0f5714
DTITLE=Various Artist - Hott Country Volume 253 Can
DYEAR=2017
DGENRE=Country
TTITLE0=Sam Hunt - Body Like A Back Road
TTITLE1=Hunter Brothers - Getaway
TTITLE2=Brett Eldredge - Somethin' I'm Good At
TTITLE3=Keith Urban ft. Carrie Underwood - The Fighter
TTITLE4=Zac Brown Band - My Old Man
TTITLE5=Jess Moskaluke - Drive Me Away
TTITLE6=Blake Shelton - Every Time I Hear That Song
TTITLE7=Kip Moore - More Girls Like You
TTITLE8=High Valley - I Be U Be
TTITLE9=Reba McEntire - Back To God
TTITLE10=Big and Rich - California
TTITLE11=Caroline Jones - Tough Guys
TTITLE12=Carly Pearce - Every Little Thing
TTITLE13=Trace Adkins - Watered Down
TTITLE14=Dustin Lynch - Small Town Boy
TTITLE15=Lanco - Greatest Love Story
TTITLE16=Matt Gary - Back
TTITLE17=Southern Halo - Living Like That
TTITLE18=Aubrie Sellers - Liar Liar
TTITLE19=Alee - When I Do
EXTD=
EXTT0=
EXTT1=
EXTT2=
EXTT3=
EXTT4=
EXTT5=
EXTT6=
EXTT7=
EXTT8=
EXTT9=
EXTT10=
EXTT11=
EXTT12=
EXTT13=
EXTT14=
EXTT15=
EXTT16=
EXTT17=
EXTT18=
EXTT19=
PLAYORDER=
